Poster:
 
http://www.hotimg.com/direct/KbCUH75.jpg

Screenshots:
 
http://www.hotimg.com/direct/z4sCYhC.png
 
http://www.hotimg.com/direct/CDMTJMT.png
 
http://www.hotimg.com/direct/HwgZwsx.png
 
http://www.hotimg.com/direct/skrmY79.png

Information:

Johnny English Reborn (2011) DVDRip XViD-WBZ
 
http://www.imdb.com/title/tt1634122/

Title: Johhny English Reborn 2011
Genre: Adventure, Comedy, Thriller
Rating: 6.6/10 (13,171 Votes)
Runtime: 101 Mins
Release Date: 6 October 2011
Year: 2011

Synopsis:
Rowan Atkinson returns to the role of the accidental secret agent who doesn't know fear or danger in the comedy spy-thriller Johnny English Reborn. In his latest adventure, the most unlikely intelligence officer in Her Majesty's Secret Service must stop a group of international assassins before they eliminate a world leader and cause global chaos. In the years since MI-7's top spy vanished off the grid, he has been honing his unique skills in a remote region of Asia. But when his agency superiors learn of an attempt against the Chinese premier's life, they must hunt down the highly unorthodox agent. Now that the world needs him once again, Johnny English is back in action. With one shot at redemption, he must employ the latest in hi-tech gadgets to unravel a web of conspiracy that runs throughout the KGB, CIA and even MI-7. With mere days until a heads of state conference…

Format : AVI
Format/Info : Audio Video Interleave
File size : 690 MiB
Duration : 1h 37mn
Overall bit rate : 992 Kbps
Writing library : VirtualDub build 32842/release

Video
ID : 0
Format : MPEG-4 Visual
Format profile : Advanced Simple@L5
Format settings, BVOP : 2
Format settings, QPel : No
Format settings, GMC : No warppoints
Format settings, Matrix : Default (H.263)
Codec ID : XVID
Codec ID/Hint : XviD
Duration : 1h 37mn
Bit rate : 790 Kbps
Width : 706 pixels
Height : 290 pixels
Display aspect ratio : 2.40:1
Frame rate : 25.000 fps
Color space : YUV
Chroma subsampling : 4:2:0
Bit depth : 8 bits
Scan type : Progressive
Compression mode : Lossy
Bits/(Pixel*Frame) : 0.154
Stream size : 550 MiB (80%)
Writing library : XviD 63

Audio
ID : 1
Format : MPEG Audio
Format version : Version 1
Format profile : Layer 3
Codec ID : 55
Codec ID/Hint : MP3
Duration : 1h 37mn
Bit rate mode : Constant
Bit rate : 192 Kbps
Channel(s) : 2 channels
Sampling rate : 44.1 KHz
Compression mode : Lossy
Stream size : 134 MiB (19%)
Alignment : Split accross interleaves
Interleave, duration : 40 ms (1.00 video frame)
Interleave, preload duration : 500 ms
Writing library : LAMELAME_MAJOR_VERSI
